name Walk5.mot
datacolumns 19
datarows 27
range 2.10400000 2.13000000
endheader

                time	   L_ground_force_vx	   L_ground_force_vy	   L_ground_force_vz	   L_ground_force_px	   L_ground_force_py	   L_ground_force_pz	   R_ground_force_vx	   R_ground_force_vy	   R_ground_force_vz	   R_ground_force_px	   R_ground_force_py	   R_ground_force_pz	   L_ground_torque_x	   L_ground_torque_y	   L_ground_torque_z	   R_ground_torque_x	   R_ground_torque_y	   R_ground_torque_z	
          2.10400000	         -0.00000001	         -0.00000003	          0.00000000	          0.00000000	          0.00000000	          0.00000000	         -1.34739944	         -4.82564695	         -0.11336959	          0.06242067	          0.00000000	          0.00590258	          0.00000000	         -0.00000000	          0.00000000	          0.00000000	          0.29990435	          0.00000000	
          2.10500000	         -0.00000001	         -0.00000003	          0.00000000	          0.00000000	          0.00000000	          0.00000000	         -1.40482426	         -5.10161047	         -0.14438190	          0.05551330	          0.00000000	          0.00531120	          0.00000000	         -0.00000000	          0.00000000	          0.00000000	          0.30962989	          0.00000000	
          2.10600000	         -0.00000001	         -0.00000003	          0.00000000	          0.00000000	          0.00000000	          0.00000000	         -1.45205808	         -5.33483262	         -0.17221182	          0.04898344	          0.00000000	          0.00475004	          0.00000000	         -0.00000000	          0.00000000	          0.00000000	          0.31735851	          0.00000000	
          2.10700000	         -0.00000001	         -0.00000003	          0.00000000	          0.00000000	          0.00000000	          0.00000000	         -1.48978889	         -5.52806617	         -0.19702479	          0.04282368	          0.00000000	          0.00421864	          0.00000000	         -0.00000000	          0.00000000	          0.00000000	          0.32323078	          0.00000000	
          2.10800000	         -0.00000001	         -0.00000003	          0.00000000	          0.00000000	          0.00000000	          0.00000000	         -1.51868211	         -5.68398091	         -0.21898354	          0.03702584	          0.00000000	          0.00371648	          0.00000000	         -0.00000000	          0.00000000	          0.00000000	          0.32738236	          0.00000000	
          2.10900000	         -0.00000001	         -0.00000002	          0.00000000	          0.00000000	          0.00000000	          0.00000000	         -1.53937995	         -5.80516069	         -0.23824777	          0.03158103	          0.00000000	          0.00324297	          0.00000000	         -0.00000000	          0.00000000	          0.00000000	          0.32994385	          0.00000000	
          2.11000000	         -0.00000001	         -0.00000002	          0.00000000	          0.00000000	          0.00000000	          0.00000000	         -1.55250103	         -5.89410092	         -0.25497380	          0.02647983	          0.00000000	          0.00279747	          0.00000000	         -0.00000000	          0.00000000	          0.00000000	          0.33104077	          0.00000000	
          2.11100000	         -0.00000001	         -0.00000002	          0.00000000	          0.00000000	          0.00000000	          0.00000000	         -1.55863995	         -5.95320663	         -0.26931423	          0.02171229	          0.00000000	          0.00237927	          0.00000000	         -0.00000000	          0.00000000	          0.00000000	          0.33079350	          0.00000000	
          2.11200000	         -0.00000001	         -0.00000002	          0.00000000	          0.00000000	          0.00000000	          0.00000000	         -1.55836718	         -5.98479115	         -0.28141769	          0.01726807	          0.00000000	          0.00198764	          0.00000000	         -0.00000000	          0.00000000	          0.00000000	          0.32931726	          0.00000000	
          2.11300000	         -0.00000001	         -0.00000002	          0.00000000	          0.00000000	          0.00000000	          0.00000000	         -1.55222889	         -5.99107509	         -0.29142866	          0.01313645	          0.00000000	          0.00162180	          0.00000000	         -0.00000000	          0.00000000	          0.00000000	          0.32672213	          0.00000000	
          2.11400000	         -0.00000001	         -0.00000002	          0.00000000	          0.00000000	          0.00000000	          0.00000000	         -1.54074700	         -5.97418586	         -0.29948722	          0.00930649	          0.00000000	          0.00128093	          0.00000000	         -0.00000000	          0.00000000	          0.00000000	          0.32311304	          0.00000000	
          2.11500000	         -0.00000001	         -0.00000002	          0.00000000	          0.00000000	          0.00000000	          0.00000000	         -1.52441922	         -5.93615757	         -0.30572890	          0.00576699	          0.00000000	          0.00096421	          0.00000000	         -0.00000000	          0.00000000	          0.00000000	          0.31858983	          0.00000000	
          2.11600000	         -0.00000001	         -0.00000002	          0.00000000	          0.00000000	          0.00000000	          0.00000000	         -1.50371926	         -5.87893124	         -0.31028462	          0.00250665	          0.00000000	          0.00067077	          0.00000000	         -0.00000000	          0.00000000	          0.00000000	          0.31324734	          0.00000000	
          2.11700000	         -0.00000001	         -0.00000001	          0.00000000	          0.00000000	          0.00000000	          0.00000000	         -1.47909710	         -5.80435542	         -0.31328050	         -0.00048595	          0.00000000	          0.00039975	          0.00000000	         -0.00000000	          0.00000000	          0.00000000	          0.30717539	          0.00000000	
          2.11800000	         -0.00000001	         -0.00000001	          0.00000000	          0.00000000	          0.00000000	          0.00000000	         -1.45097926	         -5.71418704	         -0.31483784	         -0.00322228	          0.00000000	          0.00015026	          0.00000000	         -0.00000000	          0.00000000	          0.00000000	          0.30045896	          0.00000000	
          2.11900000	         -0.00000001	         -0.00000001	          0.00000000	          0.00000000	          0.00000000	          0.00000000	         -1.41976920	         -5.61009256	         -0.31507307	         -0.00571378	          0.00000000	         -0.00007859	          0.00000000	         -0.00000000	          0.00000000	          0.00000000	          0.29317823	          0.00000000	
          2.12000000	         -0.00000000	         -0.00000001	          0.00000000	          0.00000000	          0.00000000	          0.00000000	         -1.38584777	         -5.49364940	         -0.31409771	         -0.00797184	          0.00000000	         -0.00028768	          0.00000000	         -0.00000000	          0.00000000	          0.00000000	          0.28540868	          0.00000000	
          2.12100000	         -0.00000000	         -0.00000001	          0.00000000	          0.00000000	          0.00000000	          0.00000000	         -1.34957368	         -5.36634750	         -0.31201838	         -0.01000780	          0.00000000	         -0.00047791	          0.00000000	         -0.00000000	          0.00000000	          0.00000000	          0.27722124	          0.00000000	
          2.12200000	         -0.00000000	         -0.00000001	          0.00000000	          0.00000000	          0.00000000	          0.00000000	         -1.31128404	         -5.22959115	         -0.30893679	         -0.01183283	          0.00000000	         -0.00065015	          0.00000000	         -0.00000000	          0.00000000	          0.00000000	          0.26868238	          0.00000000	
          2.12300000	         -0.00000000	         -0.00000001	          0.00000000	          0.00000000	          0.00000000	          0.00000000	         -1.27129491	         -5.08470099	         -0.30494982	         -0.01345798	          0.00000000	         -0.00080530	          0.00000000	         -0.00000000	          0.00000000	          0.00000000	          0.25985423	          0.00000000	
          2.12400000	         -0.00000000	         -0.00000001	          0.00000000	          0.00000000	          0.00000000	          0.00000000	         -1.22990190	         -4.93291610	         -0.30014950	         -0.01489409	          0.00000000	         -0.00094421	          0.00000000	         -0.00000000	          0.00000000	          0.00000000	          0.25079477	          0.00000000	
          2.12500000	         -0.00000000	         -0.00000001	          0.00000000	          0.00000000	          0.00000000	          0.00000000	         -1.18738078	         -4.77539624	         -0.29462313	         -0.01615182	          0.00000000	         -0.00106774	          0.00000000	         -0.00000000	          0.00000000	          0.00000000	          0.24155788	          0.00000000	
          2.12600000	         -0.00000000	         -0.00000001	          0.00000000	          0.00000000	          0.00000000	          0.00000000	         -1.14398814	         -4.61322427	         -0.28845332	         -0.01724158	          0.00000000	         -0.00117674	          0.00000000	         -0.00000000	          0.00000000	          0.00000000	          0.23219356	          0.00000000	
          2.12700000	         -0.00000000	         -0.00000001	          0.00000000	          0.00000000	          0.00000000	          0.00000000	         -1.09996207	         -4.44740853	         -0.28171810	         -0.01817353	          0.00000000	         -0.00127202	          0.00000000	         -0.00000000	          0.00000000	          0.00000000	          0.22274803	          0.00000000	
          2.12800000	         -0.00000000	         -0.00000001	          0.00000000	          0.00000000	          0.00000000	          0.00000000	         -1.05552277	         -4.27888542	         -0.27449098	         -0.01895756	          0.00000000	         -0.00135439	          0.00000000	         -0.00000000	          0.00000000	          0.00000000	          0.21326388	          0.00000000	
          2.12900000	         -0.00000000	         -0.00000000	          0.00000000	          0.00000000	          0.00000000	          0.00000000	         -1.01087331	         -4.10852193	         -0.26684111	         -0.01960330	          0.00000000	         -0.00142464	          0.00000000	         -0.00000000	          0.00000000	          0.00000000	          0.20378024	          0.00000000	
          2.13000000	         -0.00000000	         -0.00000000	          0.00000000	          0.00000000	          0.00000000	          0.00000000	         -0.96620028	         -3.93711830	         -0.25883333	         -0.02012006	          0.00000000	         -0.00148353	          0.00000000	         -0.00000000	          0.00000000	          0.00000000	          0.19433290	          0.00000000	
